<svg id="Capa_1" enable-background="new 0 0 512 512" height="512" viewBox="0 0 512 512" width="512" xmlns="http://www.w3.org/2000/svg"><g><g><path clip-rule="evenodd" d="m358.734 200.455c0-72.812-52.43-109.19-104.887-109.19s-104.917 36.378-104.917 109.19l110.867 29.998z" fill="#eee1dc" fill-rule="evenodd"/></g><g><path clip-rule="evenodd" d="m115.12 247.154-35.397-35.414-19.696 3.629-6.15 22.201 46.308 46.33 20.688-10.774z" fill="#9d9696" fill-rule="evenodd"/></g><g><path clip-rule="evenodd" d="m148.93 244.602c-3.769-1.73-7.907-2.807-12.271-3.119-7.907-.539-15.389 1.616-21.539 5.671-8.814 5.784-14.907 15.509-15.672 26.851-.227 3.402.028 6.72.737 9.895 3.259 14.772 15.899 26.255 31.769 27.333 6.036.397 11.846-.766 16.976-3.147l13.15-29.885z" fill="#fdb440" fill-rule="evenodd"/></g><g><path clip-rule="evenodd" d="m358.734 200.455h-209.804v44.147 63.484 49.562l104.916 17.465 104.888-17.465v-49.562-63.484z" fill="#cdbeb9" fill-rule="evenodd"/></g><g><path clip-rule="evenodd" d="m408.216 274.005c-.85-12.844-8.53-23.562-19.243-28.921-5.385-2.694-11.534-4.026-17.968-3.601-4.364.312-8.502 1.389-12.271 3.119l-15.729 32.89 15.729 30.594c5.158 2.382 10.939 3.544 17.004 3.147 18.081-1.248 32.025-16.048 32.563-33.826.028-1.134 0-2.268-.085-3.402z" fill="#fdb440" fill-rule="evenodd"/></g><g><path clip-rule="evenodd" d="m458.123 227.561-3.146-20.783-22.672-5.075-43.332 43.381.68 16.955 18.648 15.368z" fill="#9d9696" fill-rule="evenodd"/></g><g><path clip-rule="evenodd" d="m494.002 196.883c0-10.264-4.988-19.365-12.64-25.008-5.158-3.799-11.506-6.039-18.393-6.039s-13.263 2.24-18.421 6.039c-7.652 5.642-12.611 14.744-12.611 25.008 0 1.645.113 3.261.368 4.82 2.069 13.298 12.555 23.789 25.818 25.858 1.587.227 3.202.369 4.846.369 17.118 0 31.033-13.893 31.033-31.047z" fill="#fdb440" fill-rule="evenodd"/></g><g><path clip-rule="evenodd" d="m271.247 29.965c0-9.612-7.794-17.409-17.401-17.409s-17.401 7.797-17.401 17.409 7.794 17.381 17.401 17.381 17.401-7.769 17.401-17.381z" fill="#fd8087" fill-rule="evenodd"/></g><g><path clip-rule="evenodd" d="m193.056 406.926c0-7.882-6.433-14.347-14.34-14.347l-18.62-14.914-21.652 14.914h-29.814c-7.879 0-14.34 6.465-14.34 14.347v17.494 40.347 20.33c0 7.882 6.462 14.347 14.34 14.347h70.086c7.907 0 14.34-6.465 14.34-14.347v-20.33-18.742-21.605z" fill="#9d9696" fill-rule="evenodd"/></g><g><path clip-rule="evenodd" d="m399.033 392.579h-29.814l-22.616-5.529-17.656 5.529c-7.879 0-14.34 6.465-14.34 14.347v17.494 21.605 18.742 20.33c0 7.882 6.462 14.347 14.34 14.347h70.086c7.879 0 14.34-6.465 14.34-14.347v-20.33-40.347-17.494c.001-7.882-6.461-14.347-14.34-14.347z" fill="#9d9696" fill-rule="evenodd"/></g><g><path clip-rule="evenodd" d="m271.247 446.026c0-9.612-7.794-17.409-17.401-17.409s-17.401 7.797-17.401 17.409 7.794 17.381 17.401 17.381 17.401-7.769 17.401-17.381z" fill="#9d9696" fill-rule="evenodd"/></g><g><path clip-rule="evenodd" d="m358.734 200.455c0-72.812-52.43-109.19-104.887-109.19-4.081 0-8.134.199-12.158.652 48.093 5.189 92.758 41.368 92.758 108.538z" fill="#cdbeb9" fill-rule="evenodd"/></g><g><path clip-rule="evenodd" d="m358.734 244.602v-44.147h-24.288v44.147 63.484 49.562h24.288v-49.562z" fill="#9d9696" fill-rule="evenodd"/></g><g><path clip-rule="evenodd" d="m408.216 274.005c-.85-12.844-8.53-23.562-19.243-28.921-5.385-2.694-11.534-4.026-17.968-3.601-3.968.284-7.765 1.191-11.223 2.665 3.939.51 7.737 1.673 11.194 3.402 3.344 1.673 6.377 3.884 9.012 6.493 5.81 5.784 9.636 13.61 10.231 22.428.085 1.163.113 2.297.057 3.431-.028.992-.085 2.013-.198 3.005-1.474 12.561-9.664 23.278-21.085 28.127 2.182.284 4.449.34 6.745.198 18.081-1.248 32.025-16.048 32.563-33.826.028-1.133 0-2.267-.085-3.401z" fill="#fe9737" fill-rule="evenodd"/></g><g><path clip-rule="evenodd" d="m67.452 181.884c-5.158-3.799-11.506-6.039-18.393-6.039s-13.263 2.24-18.393 6.039c-7.68 5.671-12.64 14.744-12.64 25.008 0 17.154 13.887 31.047 31.033 31.047 1.644 0 3.259-.113 4.818-.369 13.263-2.07 23.749-12.561 25.846-25.83.227-1.588.368-3.204.368-4.848.001-10.264-4.987-19.338-12.639-25.008z" fill="#fdb440" fill-rule="evenodd"/></g><g><path clip-rule="evenodd" d="m148.93 308.086v-63.484c-3.769-1.73-7.907-2.807-12.271-3.119-2.239-.142-4.449-.085-6.575.17v20.471 22.655 26.255c.595.085 1.219.142 1.87.198 6.037.398 11.847-.765 16.976-3.146z" fill="#fe9737" fill-rule="evenodd"/></g><g><path clip-rule="evenodd" d="m494.002 196.883c0-10.264-4.988-19.365-12.64-25.008-5.158-3.799-11.506-6.039-18.393-6.039-3.741 0-7.312.652-10.628 1.871 2.834 1.021 5.441 2.438 7.794 4.168 7.68 5.642 12.64 14.744 12.64 25.008 0 2.977-.425 5.869-1.219 8.62-2.211 7.684-7.283 14.12-14.028 18.118-1.644.964-3.372 1.786-5.186 2.438 1.87.681 3.798 1.191 5.781 1.503 1.587.227 3.202.369 4.846.369 17.118-.001 31.033-13.894 31.033-31.048z" fill="#fe9737" fill-rule="evenodd"/></g><g><path clip-rule="evenodd" d="m80.092 206.892c0-10.264-4.988-19.337-12.64-25.008-5.158-3.799-11.506-6.039-18.393-6.039-3.741 0-7.312.652-10.599 1.871 2.806 1.021 5.413 2.438 7.794 4.168 7.652 5.671 12.611 14.744 12.611 25.008 0 3.005-.425 5.869-1.19 8.62-2.211 7.684-7.312 14.148-14.057 18.118-1.615.964-3.372 1.786-5.158 2.438 1.842.681 3.769 1.191 5.753 1.503 1.587.255 3.202.369 4.846.369 17.118-.001 31.033-13.895 31.033-31.048z" fill="#fe9737" fill-rule="evenodd"/></g><g><path clip-rule="evenodd" d="m358.734 357.648h-209.804-10.486c-8.474 0-15.417 6.947-15.417 15.424v4.083c0 8.478 6.943 15.424 15.417 15.424h40.272 75.13 75.102 40.272c8.474 0 15.417-6.947 15.417-15.424v-4.083c0-8.478-6.943-15.424-15.417-15.424z" fill="#fdb440" fill-rule="evenodd"/></g><g><path clip-rule="evenodd" d="m384.637 373.072c0-8.478-6.943-15.424-15.417-15.424h-10.486-13.802c6.036 0 11.279 3.516 13.802 8.62 1.02 2.041 1.615 4.366 1.615 6.805v4.083c0 8.478-6.943 15.424-15.417 15.424h24.288c8.474 0 15.417-6.947 15.417-15.424z" fill="#fe9737" fill-rule="evenodd"/></g><g><path clip-rule="evenodd" d="m271.247 29.965c0-9.612-7.794-17.409-17.401-17.409-2.579 0-4.988.539-7.17 1.531 6.008 2.75 10.203 8.818 10.203 15.878 0 3.629-1.105 7.032-3.032 9.839-1.785 2.609-4.279 4.678-7.17 6.011 2.182.992 4.591 1.531 7.17 1.531 9.606 0 17.4-7.769 17.4-17.381z" fill="#fd4755" fill-rule="evenodd"/></g><g><path clip-rule="evenodd" d="m301.968 262.408h-96.272c-4.421 0-8.02 3.601-8.02 8.024v37.228c0 4.423 3.599 8.052 8.02 8.052h96.272c4.421 0 8.049-3.629 8.049-8.052v-37.228c0-4.423-3.628-8.024-8.049-8.024z" fill="#60b7ff" fill-rule="evenodd"/></g><g><path clip-rule="evenodd" d="m306.616 155.004c0-9.612-7.765-17.409-17.373-17.409-9.636 0-17.401 7.797-17.401 17.409s7.765 17.409 17.401 17.409c9.608.001 17.373-7.797 17.373-17.409z" fill="#60b7ff" fill-rule="evenodd"/></g><g><path clip-rule="evenodd" d="m235.935 155.004c0-9.612-7.794-17.409-17.401-17.409s-17.401 7.797-17.401 17.409 7.794 17.409 17.401 17.409 17.401-7.797 17.401-17.409z" fill="#60b7ff" fill-rule="evenodd"/></g><g><path clip-rule="evenodd" d="m301.968 262.408h-96.272c-4.421 0-8.02 3.601-8.02 8.024v18.628c0-4.423 3.599-8.052 8.02-8.052h96.272c4.421 0 8.049 3.629 8.049 8.052v-18.628c0-4.423-3.628-8.024-8.049-8.024z" fill="#22a6fe" fill-rule="evenodd"/></g><g><path clip-rule="evenodd" d="m235.935 155.004c0-9.612-7.794-17.409-17.401-17.409-2.494 0-4.846.51-6.972 1.446 6.122 2.694 10.401 8.818 10.401 15.963 0 7.117-4.279 13.241-10.401 15.935 2.126.936 4.478 1.474 6.972 1.474 9.607.001 17.401-7.797 17.401-17.409z" fill="#22a6fe" fill-rule="evenodd"/></g><g><path clip-rule="evenodd" d="m306.616 155.004c0-9.612-7.765-17.409-17.373-17.409-2.494 0-4.875.51-7 1.446 6.122 2.694 10.401 8.818 10.401 15.963 0 7.117-4.279 13.241-10.401 15.935 2.126.936 4.506 1.474 7 1.474 9.608.001 17.373-7.797 17.373-17.409z" fill="#22a6fe" fill-rule="evenodd"/></g><g><path d="m511.98 131.342c-.01-.613-.021-1.256-.021-1.94v-19.139c0-3.46-.402-7.398-3.391-10.376-3.261-3.25-7.423-3.239-11.098-3.223l-6.87.002c-4.174 0-7.557 3.383-7.557 7.557s3.383 7.557 7.557 7.557h6.245v17.621c0 .77.011 1.495.022 2.184.059 3.652 0 4.274-1.025 5.766l-16.756 24.469c-4.909-2.268-10.366-3.542-16.118-3.542-5.761 0-11.226 1.278-16.14 3.552l-16.768-24.487c-1.019-1.485-1.078-2.107-1.019-5.758.012-.689.022-1.413.022-2.184v-17.621h6.246c4.174 0 7.557-3.383 7.557-7.557s-3.383-7.557-7.557-7.557l-6.87-.002c-3.647-.017-7.837-.028-11.098 3.223-2.989 2.977-3.391 6.916-3.391 10.376v19.139c0 .684-.011 1.328-.021 1.94-.072 4.424-.145 8.999 3.666 14.55l17.013 24.846c-6.345 6.882-10.23 16.067-10.23 26.146 0 .674.018 1.344.052 2.009l-37.217 37.258c-5.303-1.828-10.971-2.597-16.749-2.205-1.408.101-2.8.273-4.176.504v-33.994c0-45.664-19.583-81.878-55.143-101.969-15.294-8.641-32.411-13.484-49.744-14.578v-30.177c10.079-3.207 17.401-12.647 17.401-23.767 0-13.766-11.196-24.966-24.958-24.966s-24.958 11.2-24.958 24.966c0 11.12 7.322 20.56 17.401 23.767v30.175c-18.381 1.156-36.486 6.525-52.4 16.112-3.575 2.154-4.727 6.798-2.574 10.373 2.154 3.575 6.8 4.726 10.373 2.573 15.44-9.302 33.252-14.048 51.127-14.22.338.046.68.078 1.031.078.337 0 .666-.03.991-.072 16.972.165 33.922 4.447 48.875 12.895 28.651 16.188 45.251 44.861 47.256 81.252h-194.259c1.192-22.159 7.675-41.256 19.338-56.813.962-1.273 1.749-2.279 2.478-3.167 2.647-3.227 2.176-7.989-1.051-10.636-3.227-2.646-7.987-2.177-10.636 1.05-.858 1.046-1.763 2.202-2.867 3.662-14.994 20-22.595 44.715-22.595 73.461v33.996c-1.383-.233-2.785-.406-4.204-.508-7.238-.492-14.327.851-20.737 3.833l-28.837-28.851c.035-.673.054-1.351.054-2.033 0-10.085-3.89-19.276-10.243-26.16l17.041-24.852c3.771-5.546 3.696-10.106 3.625-14.517-.01-.616-.021-1.264-.021-1.953v-19.139c0-3.464-.402-7.407-3.386-10.38-3.257-3.246-7.436-3.234-11.099-3.219l-6.874.002c-4.174 0-7.557 3.383-7.557 7.557s3.383 7.557 7.557 7.557h6.246v17.621c0 .776.011 1.506.022 2.199.06 3.659.001 4.283-.995 5.747l-16.782 24.475c-4.91-2.269-10.369-3.544-16.123-3.544s-11.213 1.275-16.123 3.544l-16.786-24.478c-1.019-1.485-1.078-2.107-1.019-5.759.012-.689.022-1.414.022-2.184v-17.621h6.245c4.174 0 7.557-3.384 7.557-7.557s-3.383-7.557-7.557-7.557l-6.869-.002c-3.671-.018-7.837-.028-11.099 3.223-2.989 2.977-3.391 6.916-3.391 10.376v19.139c0 .684-.011 1.328-.021 1.94-.072 4.424-.145 8.999 3.668 14.554l17.025 24.828c-6.353 6.884-10.243 16.074-10.243 26.16 0 21.287 17.311 38.604 38.59 38.604.672 0 1.34-.018 2.003-.052l42.282 42.302c1.676 6.053 4.697 11.702 8.948 16.572 7.466 8.554 17.819 13.687 29.166 14.455.93.062 1.862.092 2.791.092 2.392 0 4.776-.207 7.124-.604v31.829h-2.93c-12.668 0-22.973 10.31-22.973 22.982v4.083c0 2.762.49 5.412 1.387 7.867h-8.227c-12.074 0-21.897 9.826-21.897 21.904v78.171c0 12.078 9.823 21.904 21.897 21.904h70.085c12.074 0 21.897-9.826 21.897-21.904v-31.514h29.45c3.211 10.067 12.657 17.381 23.783 17.381s20.572-7.314 23.783-17.381h29.421v31.514c0 12.078 9.823 21.904 21.897 21.904h70.085c12.074 0 21.897-9.826 21.897-21.904v-78.171c0-12.078-9.823-21.904-21.897-21.904h-8.228c.897-2.456 1.387-5.105 1.387-7.867v-4.083c0-12.672-10.306-22.982-22.974-22.982h-2.929v-31.836c2.364.401 4.763.61 7.17.61.928 0 1.859-.03 2.789-.091 20.898-1.416 37.27-17.817 39.366-37.993l45.324-45.346c.672.035 1.349.054 2.029.054 21.278 0 38.59-17.318 38.59-38.604 0-10.087-3.892-19.279-10.246-26.163l16.996-24.821c3.82-5.56 3.746-10.135 3.674-14.558zm-258.134-91.554c-5.428 0-9.844-4.407-9.844-9.823 0-5.432 4.416-9.852 9.844-9.852s9.844 4.419 9.844 9.852c.001 5.417-4.415 9.823-9.844 9.823zm-97.358 268.298v-63.484-36.589h194.689v36.589 63.484 42.005h-194.689zm-107.429-77.705c-12.944 0-23.476-10.538-23.476-23.49s10.532-23.49 23.476-23.49 23.476 10.538 23.476 23.49-10.531 23.49-23.476 23.49zm44.012 35.71-25.39-25.402c6.361-3.522 11.627-8.787 15.152-15.148l21.092 21.102c-5.333 5.442-9.048 12.12-10.854 19.448zm39.394 37.602c-7.304-.494-13.975-3.801-18.786-9.313-3.011-3.45-5.067-7.505-6.064-11.847-.012-.064-.026-.127-.039-.19-.562-2.535-.769-5.165-.588-7.829.494-7.309 3.8-13.985 9.309-18.798 5.031-4.395 11.35-6.759 17.946-6.759.623 0 1.25.021 1.877.063 1.796.128 3.552.42 5.254.87v52.926c-2.886.773-5.906 1.073-8.909.877zm53.035 113.17h-13.954c-4.174 0-7.557 3.383-7.557 7.557s3.383 7.557 7.557 7.557h13.954v25.232h-13.954c-4.174 0-7.557 3.384-7.557 7.557 0 4.174 3.383 7.557 7.557 7.557h13.954v12.772c0 3.744-3.043 6.789-6.784 6.789h-70.085c-3.677 0-6.784-3.109-6.784-6.789v-12.772h13.982c4.174 0 7.557-3.383 7.557-7.557s-3.383-7.557-7.557-7.557h-13.982v-25.232h13.982c4.174 0 7.557-3.383 7.557-7.557s-3.383-7.557-7.557-7.557h-13.982v-9.937c0-3.68 3.107-6.789 6.784-6.789h29.813 40.272c3.74 0 6.784 3.046 6.784 6.789zm44.56 21.605h-29.447v-31.542c0-2.37-.383-4.65-1.082-6.789h46.758v22.095c-7.694 2.451-13.78 8.539-16.229 16.236zm23.786 17.381c-5.428 0-9.844-4.407-9.844-9.823 0-5.432 4.416-9.852 9.844-9.852s9.844 4.419 9.844 9.852c.001 5.416-4.415 9.823-9.844 9.823zm23.786-17.381c-2.449-7.697-8.535-13.785-16.229-16.236v-22.095h46.73c-.699 2.139-1.082 4.42-1.082 6.789v31.542zm121.402-38.331c3.677 0 6.784 3.109 6.784 6.789v9.937h-13.954c-4.174 0-7.557 3.383-7.557 7.557s3.383 7.557 7.557 7.557h13.954v25.232h-13.954c-4.174 0-7.557 3.384-7.557 7.557 0 4.174 3.383 7.557 7.557 7.557h13.954v12.772c0 3.68-3.107 6.789-6.784 6.789h-70.085c-3.677 0-6.784-3.109-6.784-6.789v-12.772h13.954c4.174 0 7.557-3.383 7.557-7.557s-3.383-7.557-7.557-7.557h-13.954v-25.232h13.954c4.174 0 7.557-3.383 7.557-7.557s-3.383-7.557-7.557-7.557h-13.954v-9.937c0-3.68 3.107-6.789 6.784-6.789h40.271zm-29.815-34.932c4.334 0 7.861 3.529 7.861 7.867v4.083c0 4.338-3.527 7.867-7.861 7.867h-40.271-150.232-40.272c-4.334 0-7.86-3.529-7.86-7.867v-4.083c0-4.338 3.526-7.867 7.86-7.867h10.487 209.802zm6.026-61.513c-3.067.2-6.063-.092-8.955-.871v-52.93c1.698-.45 3.445-.741 5.225-.868 4.877-.328 9.639.63 13.907 2.733.092.049.187.09.281.135 2.015 1.022 3.916 2.3 5.663 3.825 5.509 4.813 8.816 11.49 9.31 18.799 1.02 15.069-10.396 28.157-25.431 29.177zm38.028-41.95c-2.423-6.652-6.487-12.625-11.963-17.409-.162-.142-.331-.273-.495-.412l28.372-28.404c3.521 6.362 8.784 11.629 15.142 15.153zm49.696-41.37c-12.944 0-23.476-10.538-23.476-23.49s10.532-23.49 23.476-23.49 23.476 10.538 23.476 23.49-10.532 23.49-23.476 23.49z"/><path d="m243.492 155.005c0-13.766-11.196-24.966-24.958-24.966s-24.958 11.2-24.958 24.966 11.196 24.966 24.958 24.966 24.958-11.2 24.958-24.966zm-34.802 0c0-5.432 4.416-9.852 9.844-9.852s9.844 4.419 9.844 9.852c0 5.432-4.416 9.852-9.844 9.852-5.428-.001-9.844-4.42-9.844-9.852z"/><path d="m301.968 254.85h-96.272c-8.59 0-15.577 6.99-15.577 15.581v37.229c0 8.607 6.988 15.61 15.577 15.61h32.563c4.174 0 7.557-3.384 7.557-7.557 0-4.174-3.383-7.557-7.557-7.557h-32.563c-.238 0-.464-.241-.464-.495v-37.229c0-.248.217-.467.464-.467h96.272c.253 0 .492.227.492.467v37.229c0 .25-.244.495-.492.495h-30.835c-4.174 0-7.557 3.384-7.557 7.557 0 4.174 3.383 7.557 7.557 7.557h30.835c8.605 0 15.606-7.002 15.606-15.61v-37.229c0-8.591-7.001-15.581-15.606-15.581z"/><path d="m314.172 155.005c0-13.766-11.183-24.966-24.929-24.966-13.762 0-24.958 11.2-24.958 24.966s11.196 24.966 24.958 24.966c13.746 0 24.929-11.2 24.929-24.966zm-34.773 0c0-5.432 4.416-9.852 9.844-9.852 5.412 0 9.815 4.419 9.815 9.852 0 5.432-4.403 9.852-9.815 9.852-5.428-.001-9.844-4.42-9.844-9.852z"/></g></g></svg>